<svg width="1600" height="4953" viewBox="0 0 1600 4953" fill="none" xmlns="http://www.w3.org/2000/svg">
<g filter="url(#filter0_f_291_16374)">
<circle cx="1454.5" cy="325.5" r="177.5" fill="#FFE711"/>
</g>
<g filter="url(#filter1_f_291_16374)">
<circle cx="66.5" cy="2479.5" r="177.5" fill="#FFE711"/>
</g>
<g filter="url(#filter2_f_291_16374)">
<circle cx="-83" cy="4255.5" r="177.5" fill="#FFE711"/>
</g>
<g filter="url(#filter3_f_291_16374)">
<circle cx="24.5" cy="633.5" r="177.5" fill="#1A7DF0"/>
</g>
<g filter="url(#filter4_f_291_16374)">
<circle cx="1783.5" cy="3203.5" r="177.5" fill="#1A7DF0"/>
</g>
<mask id="path-6-inside-1_291_16374" fill="white">
<path fill-rule="evenodd" clip-rule="evenodd" d="M-17.5 25L-29 280.042L155.391 382.864C162.165 385.703 164.856 386.888 168.62 388.69C170.881 389.772 177.99 393.019 184.419 395.906C190.848 398.793 196.648 401.555 197.308 402.044C197.968 402.533 200.453 403.684 202.831 404.601C205.208 405.518 210.621 407.888 214.859 409.867C219.098 411.846 225.026 414.468 228.032 415.693C231.038 416.918 234.275 418.323 235.225 418.815C239.719 421.142 260.381 429.634 262.64 430.082C263.487 430.251 264.437 430.618 264.75 430.899C265.283 431.377 268.299 432.661 273.686 434.703C274.957 435.185 276.46 435.796 277.025 436.061C280.247 437.57 295.795 443.486 299.117 444.466C300.53 444.883 303.304 445.884 305.282 446.69C311.087 449.055 320.412 452.408 326.09 454.171C328.209 454.829 330.267 455.664 330.664 456.028C331.061 456.391 331.87 456.708 332.462 456.732C333.054 456.756 335.158 457.339 337.136 458.027C351.756 463.113 354.329 463.953 355.275 463.953C355.862 463.953 356.468 464.185 356.622 464.468C356.777 464.75 357.542 465.117 358.322 465.283C360.109 465.663 369.37 468.467 376.439 470.767C385.861 473.834 411.978 481.477 415.999 482.344C416.705 482.496 421.329 483.767 426.274 485.167C431.219 486.567 437.462 488.245 440.146 488.895C442.83 489.545 447.223 490.61 449.908 491.261C452.592 491.911 457.678 493.219 461.21 494.168C467.784 495.933 470.241 496.549 480.99 499.124C491.897 501.737 494.271 502.292 498.458 503.209C500.719 503.704 506.383 505.017 511.046 506.127C515.708 507.236 523.569 509.047 528.514 510.151C533.459 511.255 539.701 512.699 542.385 513.362C545.07 514.024 551.743 515.438 557.214 516.504C562.686 517.57 567.31 518.672 567.49 518.952C567.669 519.232 568.857 519.488 570.129 519.521C571.4 519.554 576.487 520.394 581.432 521.388C597.333 524.584 602.164 525.519 605.836 526.114C607.814 526.434 611.744 527.098 614.57 527.591C646.355 533.124 666.166 535.976 697.543 539.535C709.06 540.842 711.553 541.136 744.039 545.011C756.189 546.46 767.056 547.78 768.186 547.943C769.316 548.107 777.639 548.755 786.682 549.384C795.724 550.013 806.821 550.804 811.342 551.143C840.68 553.336 854.034 554.044 866.829 554.081C885.202 554.136 903.822 554.955 911.27 556.036C914.802 556.549 923.356 557.756 930.279 558.721C944.679 560.726 950.464 561.937 961.038 565.158C977.992 570.322 994.081 576.551 1010.43 584.277C1023.62 590.516 1034.15 594.014 1046.18 596.155C1060.99 598.794 1070.81 599.368 1107.13 599.719C1141.12 600.048 1148.15 599.808 1159.42 597.934C1162.1 597.488 1165.35 596.988 1166.64 596.823C1169.41 596.469 1178.11 594.763 1189.47 592.344C1197.72 590.588 1203.7 589.088 1215.16 585.894C1218.55 584.949 1223.76 583.543 1226.72 582.77C1229.69 581.996 1233.62 580.855 1235.46 580.235C1237.29 579.615 1240.99 578.444 1243.68 577.635C1249.57 575.857 1258.96 571.867 1265.48 568.377C1277.34 562.02 1284.07 554.254 1285.1 545.729C1286.04 538.007 1281.3 535.368 1266.31 535.252C1258.18 535.189 1249.82 536.203 1235.97 538.933C1234.42 539.239 1231.18 539.746 1228.78 540.06C1226.38 540.374 1221.87 541.045 1218.76 541.552C1215.65 542.059 1207.56 543.378 1200.78 544.482C1194 545.586 1186.37 546.873 1183.82 547.34C1181.28 547.806 1173.86 548.901 1167.34 549.772C1156.96 551.156 1155.26 551.256 1153.79 550.567C1150.21 548.891 1148.99 543.33 1151.58 540.531C1153.45 538.514 1155.1 537.863 1160.82 536.892C1163.45 536.446 1166.93 535.802 1168.55 535.463C1170.17 535.123 1178.2 533.67 1186.39 532.233C1194.59 530.795 1202.45 529.361 1203.86 529.046C1205.27 528.73 1207.45 528.332 1208.7 528.162C1209.94 527.991 1211.97 527.597 1213.19 527.286C1214.42 526.976 1216.86 526.479 1218.63 526.182C1232.45 523.86 1263.98 516.908 1288.63 510.748C1290.33 510.324 1298.65 508.266 1307.13 506.176C1325 501.768 1326.87 501.176 1332.01 498.329C1336.69 495.736 1341.96 490.067 1343.98 485.459C1346.52 479.653 1347.24 475.26 1346.59 469.396C1346.06 464.523 1345.94 464.17 1344.13 462.401C1339.9 458.269 1332.2 457.184 1321.85 459.263C1318.36 459.964 1315 460.754 1314.39 461.019C1313.77 461.284 1310.96 461.94 1308.14 462.477C1305.32 463.015 1301.98 463.714 1300.7 464.03C1299.43 464.348 1292.84 465.754 1286.06 467.156C1279.28 468.558 1271.3 470.232 1268.34 470.876C1261.48 472.365 1252.12 474.319 1237.51 477.315C1231.15 478.619 1224.22 480.057 1222.1 480.512C1217.59 481.48 1210.07 482.853 1202.83 484.027C1200.01 484.486 1194.57 485.387 1190.76 486.03C1179.48 487.929 1177.87 487.659 1176.82 483.698C1175.59 479.044 1178.03 477.122 1188.19 474.727C1191.72 473.895 1198.43 472.315 1203.09 471.216C1207.75 470.117 1213.76 468.669 1216.45 468C1219.13 467.33 1222.83 466.415 1224.67 465.967C1226.5 465.518 1230.32 464.505 1233.14 463.715C1235.97 462.924 1241.17 461.494 1244.7 460.535C1248.24 459.575 1258.06 456.794 1266.54 454.355C1275.02 451.915 1282.88 449.707 1284.01 449.447C1285.14 449.188 1291.09 447.507 1297.24 445.712C1303.38 443.916 1313.32 441.022 1319.33 439.279C1342.11 432.666 1346.34 430.528 1353.95 421.766C1359.08 415.861 1360.56 412.281 1360.55 405.83C1360.54 401.897 1360.31 400.404 1359.42 398.51C1356.86 393.048 1352.75 390.855 1344.05 390.305C1337.43 389.887 1334 390.568 1310.72 396.904C1287.29 403.282 1283.03 404.438 1276.56 406.167C1273.59 406.959 1270.35 407.846 1269.37 408.138C1268.38 408.429 1264.33 409.477 1260.37 410.465C1256.42 411.455 1252.72 412.389 1252.15 412.541C1247.73 413.737 1207.19 423.377 1202.32 424.392C1198.93 425.099 1194.54 426.072 1192.56 426.555C1190.58 427.037 1186.88 427.559 1184.34 427.716C1180.27 427.967 1179.51 427.855 1178.01 426.784C1175.2 424.772 1173.93 419.172 1175.43 415.437C1176.88 411.853 1184.66 408.711 1199.24 405.828C1208.27 404.04 1215.64 402.409 1220.31 401.162C1227.23 399.316 1244.6 394.913 1265.77 389.64C1299.91 381.134 1306.29 379.289 1309.65 376.939C1312.51 374.941 1316.02 371.052 1316.95 368.841C1318.37 365.484 1319.19 360.826 1319.19 356.076C1319.2 352.147 1319.01 351.044 1318.04 349.426C1316.3 346.506 1313.06 344.927 1307.23 344.163C1301.39 343.397 1297.63 343.808 1282.72 346.842C1277.5 347.906 1269.17 349.59 1264.23 350.585C1259.28 351.58 1252.81 352.911 1249.84 353.543C1237.95 356.075 1224.01 358.902 1216.7 360.263C1212.47 361.053 1204.72 362.497 1199.49 363.472C1194.27 364.446 1185.6 365.988 1180.23 366.898C1174.86 367.808 1165.84 369.335 1160.19 370.291C1149.35 372.124 1120.93 376.216 1111.38 377.32C1108.27 377.679 1101.45 378.495 1096.23 379.134C1091 379.772 1084.64 380.542 1082.1 380.846C1050.14 384.657 1049.47 384.719 1049.47 383.831C1049.47 383.559 1050.11 382.267 1050.89 380.959C1053.87 375.936 1067.3 366.001 1076.82 361.771C1087.9 356.85 1089.9 356.304 1116.78 350.838C1137.14 346.697 1147.82 342.268 1154.9 335.032C1157.9 331.965 1161.31 326.743 1163.02 322.58C1164.9 317.984 1165.87 310.17 1165.05 306.044C1163.96 300.509 1160.29 295.465 1156.48 294.269C1154 293.491 1147.8 293.501 1138.35 294.299C1134.24 294.648 1119.62 294.894 1105.67 294.85C1082.36 294.778 1080.08 294.859 1075.82 295.912C1067.92 297.863 1062.77 301.024 1035.6 320.638C1009.26 339.65 999.728 345.923 983.224 355.094C964.916 365.269 947.071 372.856 933.619 376.184C929.663 377.163 918.681 379.853 909.215 382.162L892.004 386.359L867.6 386.212C854.178 386.132 835.682 385.768 826.498 385.404C817.315 385.04 802.552 384.641 793.692 384.517L777.583 384.292L768.261 387.875C759.339 391.303 749.89 395.505 739.929 400.471C732.758 404.047 714.98 410.962 707.38 413.133C696.415 416.264 684.404 417.281 652.332 417.795C620.403 418.307 602.891 417.294 580.94 413.663C577.984 413.174 574.054 412.376 572.206 411.889C570.357 411.402 566.648 410.496 563.964 409.877C547.181 406.002 537.107 402.903 515.156 394.867C506.815 391.813 503.653 390.589 494.366 386.815C488.563 384.458 477.281 377.414 473.279 373.651C470.663 371.19 468.427 367.552 467.897 364.892C467.67 363.752 467.633 362.818 467.815 362.817C467.997 362.815 468.592 361.573 469.136 360.056C470.796 355.428 472.323 353.17 475.099 351.238C478.588 348.809 482.315 348.071 488.954 348.496C493.922 348.814 504.61 350.286 506.422 350.902C506.846 351.046 509.158 351.424 511.56 351.742C515.576 352.273 521.972 353.358 533.908 355.531C543.821 357.337 569.252 361.821 577.065 363.141C589.491 365.241 594.083 364.941 596.387 361.882C598.363 359.259 597.786 354.519 595.189 352.047C593.373 350.318 591.751 349.815 581.263 347.729C566.495 344.792 551.104 341.39 540.587 338.739C534.936 337.315 523.492 334.425 515.156 332.318C506.82 330.211 498.497 328.12 496.66 327.67C491.492 326.405 486.03 325.033 458.642 318.118C424.278 309.442 419.743 307.743 414.215 301.477C410.214 296.941 409.218 290.802 411.246 283.19C413.073 276.336 416.64 271.971 422.399 269.544C425.59 268.2 434.038 268.172 439.496 269.488C441.54 269.981 443.968 270.531 444.891 270.71C448.483 271.41 457.159 273.427 463.779 275.102C467.594 276.067 477.073 278.29 484.844 280.042C492.614 281.793 504.059 284.379 510.275 285.788C537.206 291.892 551.212 294.854 564.065 297.164C569.365 298.117 573.119 297.687 574.335 295.988C575.788 293.959 575.529 291.124 573.672 288.732C571.819 286.345 568.681 285.131 555.487 281.698C542.042 278.2 533.408 275.723 523.89 272.633C518.945 271.028 514.032 269.476 512.972 269.184C511.913 268.893 505.208 266.8 498.073 264.536C490.938 262.271 478.396 258.335 470.201 255.79C462.007 253.245 450.794 249.722 445.284 247.96C439.773 246.199 432.375 243.843 428.843 242.726C415.917 238.637 409.989 235.676 405.78 231.205C402.128 227.325 401.613 225.782 401.613 218.7C401.613 210.827 402.313 208.165 405.28 204.756C408.958 200.528 414.212 198.325 420.589 198.334C424.692 198.34 434.444 200.17 441.173 202.196C442.728 202.665 446.163 203.699 448.808 204.497C451.453 205.294 456.192 206.813 459.34 207.872C462.488 208.932 466.798 210.259 468.917 210.821C471.036 211.383 475.891 212.825 479.706 214.025C486.92 216.294 500.989 220.675 513.358 224.503C517.314 225.728 525.406 228.166 531.34 229.922C540.769 232.712 545.948 234.161 562.679 238.685C573.486 241.608 578.366 239.921 578.338 233.271C578.303 225.093 573.468 221.156 558.569 217.174C553.212 215.742 509.19 203.161 485.357 196.25C456.784 187.965 450.529 185.426 447.183 180.752C443.879 176.137 443.482 174.798 443.522 168.397C443.565 161.618 444.676 158.193 447.771 155.307C451.128 152.177 453.467 151.693 463.93 151.965C474.31 152.234 476.276 152.591 493.835 157.387C515.026 163.176 571.661 176.434 593.248 180.659C597.346 181.461 603.819 182.873 607.634 183.797C611.449 184.721 622.893 187.312 633.065 189.553C643.238 191.796 657.456 194.932 664.662 196.522C671.868 198.113 681.776 200.239 686.68 201.247L695.597 203.079L697.084 201.468C697.902 200.582 698.571 199.593 698.571 199.271C698.571 197.904 695.567 193.971 691.687 190.257C682.774 181.725 676.567 177.075 668.471 172.863C660.233 168.577 656.367 167.363 641.286 164.326C619.162 159.869 608.344 154.727 600.226 144.808C596.944 140.797 596.252 139.462 595.07 134.864C593.985 130.639 593.921 121.163 594.953 117.41C595.924 113.882 598.265 110.561 601.342 108.349C605.523 105.341 606.814 105.187 621.949 105.885C629.476 106.232 643.169 106.77 652.378 107.08C670.706 107.698 674.82 108.154 682.13 110.381C691.595 113.265 695.883 116.068 709.151 128.044C717.637 135.702 724.458 141.368 750.718 162.563C765.358 174.38 766.994 175.609 774.351 180.308C790.406 190.564 805.897 197.502 834.462 207.233C843.963 210.47 858.688 214.962 862.401 215.756C868.134 216.983 899.334 217.659 918.206 216.965C928.096 216.602 954.105 216.06 976.005 215.76C1007.66 215.326 1018.51 214.976 1028.92 214.051C1036.13 213.411 1047.34 212.497 1053.84 212.019C1070.41 210.8 1078.83 210.065 1083.9 209.394C1086.3 209.075 1091.04 208.528 1094.43 208.178C1097.82 207.827 1111.69 205.986 1125.25 204.086C1146.87 201.058 1155.56 199.798 1173.03 197.163C1175.29 196.822 1178.3 196.298 1179.71 195.999C1181.13 195.699 1185.06 194.933 1188.45 194.297C1202.43 191.671 1219.84 188.17 1239.05 184.116C1241.17 183.669 1246.84 182.487 1251.64 181.491C1256.44 180.493 1263.38 178.917 1267.05 177.988C1270.73 177.059 1278.12 175.232 1283.49 173.928C1292.57 171.723 1303.51 168.875 1315.86 165.501C1318.69 164.729 1322.84 163.677 1325.09 163.164C1327.35 162.651 1330.93 161.7 1333.06 161.052C1335.18 160.404 1340.05 158.972 1343.86 157.87C1347.68 156.769 1351.84 155.51 1353.11 155.071C1354.38 154.633 1357.27 153.717 1359.53 153.035C1362.82 152.042 1384.35 145.221 1392.67 142.537C1393.66 142.217 1397.36 141.025 1400.89 139.888C1404.42 138.751 1411.36 136.375 1416.3 134.609C1421.25 132.842 1427.84 130.488 1430.94 129.379C1434.05 128.269 1443.71 124.717 1452.39 121.487L1618.5 54L1632.5 -36.5L-17.5 -36.5001V25ZM472.058 348.143C471.026 350.275 467.376 355.441 467.376 354.768C467.376 353.358 468.826 350.188 470.163 348.675C471.743 346.887 472.81 346.588 472.058 348.143ZM493.578 523.257C493.578 523.567 493.925 523.82 494.348 523.82C494.772 523.82 495.119 523.717 495.119 523.592C495.119 523.466 494.772 523.213 494.348 523.028C493.925 522.845 493.578 522.948 493.578 523.257Z"/>
</mask>
<path fill-rule="evenodd" clip-rule="evenodd" d="M-17.5 25L-29 280.042L155.391 382.864C162.165 385.703 164.856 386.888 168.62 388.69C170.881 389.772 177.99 393.019 184.419 395.906C190.848 398.793 196.648 401.555 197.308 402.044C197.968 402.533 200.453 403.684 202.831 404.601C205.208 405.518 210.621 407.888 214.859 409.867C219.098 411.846 225.026 414.468 228.032 415.693C231.038 416.918 234.275 418.323 235.225 418.815C239.719 421.142 260.381 429.634 262.64 430.082C263.487 430.251 264.437 430.618 264.75 430.899C265.283 431.377 268.299 432.661 273.686 434.703C274.957 435.185 276.46 435.796 277.025 436.061C280.247 437.57 295.795 443.486 299.117 444.466C300.53 444.883 303.304 445.884 305.282 446.69C311.087 449.055 320.412 452.408 326.09 454.171C328.209 454.829 330.267 455.664 330.664 456.028C331.061 456.391 331.87 456.708 332.462 456.732C333.054 456.756 335.158 457.339 337.136 458.027C351.756 463.113 354.329 463.953 355.275 463.953C355.862 463.953 356.468 464.185 356.622 464.468C356.777 464.75 357.542 465.117 358.322 465.283C360.109 465.663 369.37 468.467 376.439 470.767C385.861 473.834 411.978 481.477 415.999 482.344C416.705 482.496 421.329 483.767 426.274 485.167C431.219 486.567 437.462 488.245 440.146 488.895C442.83 489.545 447.223 490.61 449.908 491.261C452.592 491.911 457.678 493.219 461.21 494.168C467.784 495.933 470.241 496.549 480.99 499.124C491.897 501.737 494.271 502.292 498.458 503.209C500.719 503.704 506.383 505.017 511.046 506.127C515.708 507.236 523.569 509.047 528.514 510.151C533.459 511.255 539.701 512.699 542.385 513.362C545.07 514.024 551.743 515.438 557.214 516.504C562.686 517.57 567.31 518.672 567.49 518.952C567.669 519.232 568.857 519.488 570.129 519.521C571.4 519.554 576.487 520.394 581.432 521.388C597.333 524.584 602.164 525.519 605.836 526.114C607.814 526.434 611.744 527.098 614.57 527.591C646.355 533.124 666.166 535.976 697.543 539.535C709.06 540.842 711.553 541.136 744.039 545.011C756.189 546.46 767.056 547.78 768.186 547.943C769.316 548.107 777.639 548.755 786.682 549.384C795.724 550.013 806.821 550.804 811.342 551.143C840.68 553.336 854.034 554.044 866.829 554.081C885.202 554.136 903.822 554.955 911.27 556.036C914.802 556.549 923.356 557.756 930.279 558.721C944.679 560.726 950.464 561.937 961.038 565.158C977.992 570.322 994.081 576.551 1010.43 584.277C1023.62 590.516 1034.15 594.014 1046.18 596.155C1060.99 598.794 1070.81 599.368 1107.13 599.719C1141.12 600.048 1148.15 599.808 1159.42 597.934C1162.1 597.488 1165.35 596.988 1166.64 596.823C1169.41 596.469 1178.11 594.763 1189.47 592.344C1197.72 590.588 1203.7 589.088 1215.16 585.894C1218.55 584.949 1223.76 583.543 1226.72 582.77C1229.69 581.996 1233.62 580.855 1235.46 580.235C1237.29 579.615 1240.99 578.444 1243.68 577.635C1249.57 575.857 1258.96 571.867 1265.48 568.377C1277.34 562.02 1284.07 554.254 1285.1 545.729C1286.04 538.007 1281.3 535.368 1266.31 535.252C1258.18 535.189 1249.82 536.203 1235.97 538.933C1234.42 539.239 1231.18 539.746 1228.78 540.06C1226.38 540.374 1221.87 541.045 1218.76 541.552C1215.65 542.059 1207.56 543.378 1200.78 544.482C1194 545.586 1186.37 546.873 1183.82 547.34C1181.28 547.806 1173.86 548.901 1167.34 549.772C1156.96 551.156 1155.26 551.256 1153.79 550.567C1150.21 548.891 1148.99 543.33 1151.58 540.531C1153.45 538.514 1155.1 537.863 1160.82 536.892C1163.45 536.446 1166.93 535.802 1168.55 535.463C1170.17 535.123 1178.2 533.67 1186.39 532.233C1194.59 530.795 1202.45 529.361 1203.86 529.046C1205.27 528.73 1207.45 528.332 1208.7 528.162C1209.94 527.991 1211.97 527.597 1213.19 527.286C1214.42 526.976 1216.86 526.479 1218.63 526.182C1232.45 523.86 1263.98 516.908 1288.63 510.748C1290.33 510.324 1298.65 508.266 1307.13 506.176C1325 501.768 1326.87 501.176 1332.01 498.329C1336.69 495.736 1341.96 490.067 1343.98 485.459C1346.52 479.653 1347.24 475.26 1346.59 469.396C1346.06 464.523 1345.94 464.17 1344.13 462.401C1339.9 458.269 1332.2 457.184 1321.85 459.263C1318.36 459.964 1315 460.754 1314.39 461.019C1313.77 461.284 1310.96 461.94 1308.14 462.477C1305.32 463.015 1301.98 463.714 1300.7 464.03C1299.43 464.348 1292.84 465.754 1286.06 467.156C1279.28 468.558 1271.3 470.232 1268.34 470.876C1261.48 472.365 1252.12 474.319 1237.51 477.315C1231.15 478.619 1224.22 480.057 1222.1 480.512C1217.59 481.48 1210.07 482.853 1202.83 484.027C1200.01 484.486 1194.57 485.387 1190.76 486.03C1179.48 487.929 1177.87 487.659 1176.82 483.698C1175.59 479.044 1178.03 477.122 1188.19 474.727C1191.72 473.895 1198.43 472.315 1203.09 471.216C1207.75 470.117 1213.76 468.669 1216.45 468C1219.13 467.33 1222.83 466.415 1224.67 465.967C1226.5 465.518 1230.32 464.505 1233.14 463.715C1235.97 462.924 1241.17 461.494 1244.7 460.535C1248.24 459.575 1258.06 456.794 1266.54 454.355C1275.02 451.915 1282.88 449.707 1284.01 449.447C1285.14 449.188 1291.09 447.507 1297.24 445.712C1303.38 443.916 1313.32 441.022 1319.33 439.279C1342.11 432.666 1346.34 430.528 1353.95 421.766C1359.08 415.861 1360.56 412.281 1360.55 405.83C1360.54 401.897 1360.31 400.404 1359.42 398.51C1356.86 393.048 1352.75 390.855 1344.05 390.305C1337.43 389.887 1334 390.568 1310.72 396.904C1287.29 403.282 1283.03 404.438 1276.56 406.167C1273.59 406.959 1270.35 407.846 1269.37 408.138C1268.38 408.429 1264.33 409.477 1260.37 410.465C1256.42 411.455 1252.72 412.389 1252.15 412.541C1247.73 413.737 1207.19 423.377 1202.32 424.392C1198.93 425.099 1194.54 426.072 1192.56 426.555C1190.58 427.037 1186.88 427.559 1184.34 427.716C1180.27 427.967 1179.51 427.855 1178.01 426.784C1175.2 424.772 1173.93 419.172 1175.43 415.437C1176.88 411.853 1184.66 408.711 1199.24 405.828C1208.27 404.04 1215.64 402.409 1220.31 401.162C1227.23 399.316 1244.6 394.913 1265.77 389.64C1299.91 381.134 1306.29 379.289 1309.65 376.939C1312.51 374.941 1316.02 371.052 1316.95 368.841C1318.37 365.484 1319.19 360.826 1319.19 356.076C1319.2 352.147 1319.01 351.044 1318.04 349.426C1316.3 346.506 1313.06 344.927 1307.23 344.163C1301.39 343.397 1297.63 343.808 1282.72 346.842C1277.5 347.906 1269.17 349.59 1264.23 350.585C1259.28 351.58 1252.81 352.911 1249.84 353.543C1237.95 356.075 1224.01 358.902 1216.7 360.263C1212.47 361.053 1204.72 362.497 1199.49 363.472C1194.27 364.446 1185.6 365.988 1180.23 366.898C1174.86 367.808 1165.84 369.335 1160.19 370.291C1149.35 372.124 1120.93 376.216 1111.38 377.32C1108.27 377.679 1101.45 378.495 1096.23 379.134C1091 379.772 1084.64 380.542 1082.1 380.846C1050.14 384.657 1049.47 384.719 1049.47 383.831C1049.47 383.559 1050.11 382.267 1050.89 380.959C1053.87 375.936 1067.3 366.001 1076.82 361.771C1087.9 356.85 1089.9 356.304 1116.78 350.838C1137.14 346.697 1147.82 342.268 1154.9 335.032C1157.9 331.965 1161.31 326.743 1163.02 322.58C1164.9 317.984 1165.87 310.17 1165.05 306.044C1163.96 300.509 1160.29 295.465 1156.48 294.269C1154 293.491 1147.8 293.501 1138.35 294.299C1134.24 294.648 1119.62 294.894 1105.67 294.85C1082.36 294.778 1080.08 294.859 1075.82 295.912C1067.92 297.863 1062.77 301.024 1035.6 320.638C1009.26 339.65 999.728 345.923 983.224 355.094C964.916 365.269 947.071 372.856 933.619 376.184C929.663 377.163 918.681 379.853 909.215 382.162L892.004 386.359L867.6 386.212C854.178 386.132 835.682 385.768 826.498 385.404C817.315 385.04 802.552 384.641 793.692 384.517L777.583 384.292L768.261 387.875C759.339 391.303 749.89 395.505 739.929 400.471C732.758 404.047 714.98 410.962 707.38 413.133C696.415 416.264 684.404 417.281 652.332 417.795C620.403 418.307 602.891 417.294 580.94 413.663C577.984 413.174 574.054 412.376 572.206 411.889C570.357 411.402 566.648 410.496 563.964 409.877C547.181 406.002 537.107 402.903 515.156 394.867C506.815 391.813 503.653 390.589 494.366 386.815C488.563 384.458 477.281 377.414 473.279 373.651C470.663 371.19 468.427 367.552 467.897 364.892C467.67 363.752 467.633 362.818 467.815 362.817C467.997 362.815 468.592 361.573 469.136 360.056C470.796 355.428 472.323 353.17 475.099 351.238C478.588 348.809 482.315 348.071 488.954 348.496C493.922 348.814 504.61 350.286 506.422 350.902C506.846 351.046 509.158 351.424 511.56 351.742C515.576 352.273 521.972 353.358 533.908 355.531C543.821 357.337 569.252 361.821 577.065 363.141C589.491 365.241 594.083 364.941 596.387 361.882C598.363 359.259 597.786 354.519 595.189 352.047C593.373 350.318 591.751 349.815 581.263 347.729C566.495 344.792 551.104 341.39 540.587 338.739C534.936 337.315 523.492 334.425 515.156 332.318C506.82 330.211 498.497 328.12 496.66 327.67C491.492 326.405 486.03 325.033 458.642 318.118C424.278 309.442 419.743 307.743 414.215 301.477C410.214 296.941 409.218 290.802 411.246 283.19C413.073 276.336 416.64 271.971 422.399 269.544C425.59 268.2 434.038 268.172 439.496 269.488C441.54 269.981 443.968 270.531 444.891 270.71C448.483 271.41 457.159 273.427 463.779 275.102C467.594 276.067 477.073 278.29 484.844 280.042C492.614 281.793 504.059 284.379 510.275 285.788C537.206 291.892 551.212 294.854 564.065 297.164C569.365 298.117 573.119 297.687 574.335 295.988C575.788 293.959 575.529 291.124 573.672 288.732C571.819 286.345 568.681 285.131 555.487 281.698C542.042 278.2 533.408 275.723 523.89 272.633C518.945 271.028 514.032 269.476 512.972 269.184C511.913 268.893 505.208 266.8 498.073 264.536C490.938 262.271 478.396 258.335 470.201 255.79C462.007 253.245 450.794 249.722 445.284 247.96C439.773 246.199 432.375 243.843 428.843 242.726C415.917 238.637 409.989 235.676 405.78 231.205C402.128 227.325 401.613 225.782 401.613 218.7C401.613 210.827 402.313 208.165 405.28 204.756C408.958 200.528 414.212 198.325 420.589 198.334C424.692 198.34 434.444 200.17 441.173 202.196C442.728 202.665 446.163 203.699 448.808 204.497C451.453 205.294 456.192 206.813 459.34 207.872C462.488 208.932 466.798 210.259 468.917 210.821C471.036 211.383 475.891 212.825 479.706 214.025C486.92 216.294 500.989 220.675 513.358 224.503C517.314 225.728 525.406 228.166 531.34 229.922C540.769 232.712 545.948 234.161 562.679 238.685C573.486 241.608 578.366 239.921 578.338 233.271C578.303 225.093 573.468 221.156 558.569 217.174C553.212 215.742 509.19 203.161 485.357 196.25C456.784 187.965 450.529 185.426 447.183 180.752C443.879 176.137 443.482 174.798 443.522 168.397C443.565 161.618 444.676 158.193 447.771 155.307C451.128 152.177 453.467 151.693 463.93 151.965C474.31 152.234 476.276 152.591 493.835 157.387C515.026 163.176 571.661 176.434 593.248 180.659C597.346 181.461 603.819 182.873 607.634 183.797C611.449 184.721 622.893 187.312 633.065 189.553C643.238 191.796 657.456 194.932 664.662 196.522C671.868 198.113 681.776 200.239 686.68 201.247L695.597 203.079L697.084 201.468C697.902 200.582 698.571 199.593 698.571 199.271C698.571 197.904 695.567 193.971 691.687 190.257C682.774 181.725 676.567 177.075 668.471 172.863C660.233 168.577 656.367 167.363 641.286 164.326C619.162 159.869 608.344 154.727 600.226 144.808C596.944 140.797 596.252 139.462 595.07 134.864C593.985 130.639 593.921 121.163 594.953 117.41C595.924 113.882 598.265 110.561 601.342 108.349C605.523 105.341 606.814 105.187 621.949 105.885C629.476 106.232 643.169 106.77 652.378 107.08C670.706 107.698 674.82 108.154 682.13 110.381C691.595 113.265 695.883 116.068 709.151 128.044C717.637 135.702 724.458 141.368 750.718 162.563C765.358 174.38 766.994 175.609 774.351 180.308C790.406 190.564 805.897 197.502 834.462 207.233C843.963 210.47 858.688 214.962 862.401 215.756C868.134 216.983 899.334 217.659 918.206 216.965C928.096 216.602 954.105 216.06 976.005 215.76C1007.66 215.326 1018.51 214.976 1028.92 214.051C1036.13 213.411 1047.34 212.497 1053.84 212.019C1070.41 210.8 1078.83 210.065 1083.9 209.394C1086.3 209.075 1091.04 208.528 1094.43 208.178C1097.82 207.827 1111.69 205.986 1125.25 204.086C1146.87 201.058 1155.56 199.798 1173.03 197.163C1175.29 196.822 1178.3 196.298 1179.71 195.999C1181.13 195.699 1185.06 194.933 1188.45 194.297C1202.43 191.671 1219.84 188.17 1239.05 184.116C1241.17 183.669 1246.84 182.487 1251.64 181.491C1256.44 180.493 1263.38 178.917 1267.05 177.988C1270.73 177.059 1278.12 175.232 1283.49 173.928C1292.57 171.723 1303.51 168.875 1315.86 165.501C1318.69 164.729 1322.84 163.677 1325.09 163.164C1327.35 162.651 1330.93 161.7 1333.06 161.052C1335.18 160.404 1340.05 158.972 1343.86 157.87C1347.68 156.769 1351.84 155.51 1353.11 155.071C1354.38 154.633 1357.27 153.717 1359.53 153.035C1362.82 152.042 1384.35 145.221 1392.67 142.537C1393.66 142.217 1397.36 141.025 1400.89 139.888C1404.42 138.751 1411.36 136.375 1416.3 134.609C1421.25 132.842 1427.84 130.488 1430.94 129.379C1434.05 128.269 1443.71 124.717 1452.39 121.487L1618.5 54L1632.5 -36.5L-17.5 -36.5001V25ZM472.058 348.143C471.026 350.275 467.376 355.441 467.376 354.768C467.376 353.358 468.826 350.188 470.163 348.675C471.743 346.887 472.81 346.588 472.058 348.143ZM493.578 523.257C493.578 523.567 493.925 523.82 494.348 523.82C494.772 523.82 495.119 523.717 495.119 523.592C495.119 523.466 494.772 523.213 494.348 523.028C493.925 522.845 493.578 522.948 493.578 523.257Z" stroke="#FFE711" stroke-width="4" mask="url(#path-6-inside-1_291_16374)"/>
<defs>
<filter id="filter0_f_291_16374" x="777" y="-352" width="1355" height="1355" filterUnits="userSpaceOnUse" color-interpolation-filters="sRGB">
<feFlood flood-opacity="0" result="BackgroundImageFix"/>
<feBlend mode="normal" in="SourceGraphic" in2="BackgroundImageFix" result="shape"/>
<feGaussianBlur stdDeviation="250" result="effect1_foregroundBlur_291_16374"/>
</filter>
<filter id="filter1_f_291_16374" x="-611" y="1802" width="1355" height="1355" filterUnits="userSpaceOnUse" color-interpolation-filters="sRGB">
<feFlood flood-opacity="0" result="BackgroundImageFix"/>
<feBlend mode="normal" in="SourceGraphic" in2="BackgroundImageFix" result="shape"/>
<feGaussianBlur stdDeviation="250" result="effect1_foregroundBlur_291_16374"/>
</filter>
<filter id="filter2_f_291_16374" x="-760.5" y="3578" width="1355" height="1355" filterUnits="userSpaceOnUse" color-interpolation-filters="sRGB">
<feFlood flood-opacity="0" result="BackgroundImageFix"/>
<feBlend mode="normal" in="SourceGraphic" in2="BackgroundImageFix" result="shape"/>
<feGaussianBlur stdDeviation="250" result="effect1_foregroundBlur_291_16374"/>
</filter>
<filter id="filter3_f_291_16374" x="-653" y="-44" width="1355" height="1355" filterUnits="userSpaceOnUse" color-interpolation-filters="sRGB">
<feFlood flood-opacity="0" result="BackgroundImageFix"/>
<feBlend mode="normal" in="SourceGraphic" in2="BackgroundImageFix" result="shape"/>
<feGaussianBlur stdDeviation="250" result="effect1_foregroundBlur_291_16374"/>
</filter>
<filter id="filter4_f_291_16374" x="1106" y="2526" width="1355" height="1355" filterUnits="userSpaceOnUse" color-interpolation-filters="sRGB">
<feFlood flood-opacity="0" result="BackgroundImageFix"/>
<feBlend mode="normal" in="SourceGraphic" in2="BackgroundImageFix" result="shape"/>
<feGaussianBlur stdDeviation="250" result="effect1_foregroundBlur_291_16374"/>
</filter>
</defs>
</svg>
