<svg width="500" height="569" viewBox="0 0 500 569" fill="none" xmlns="http://www.w3.org/2000/svg">
<mask id="path-1-inside-1_250_11730" fill="white">
<path fill-rule="evenodd" clip-rule="evenodd" d="M-51.1001 107.916V226.075L-50.0624 226.511C-47.1817 227.72 -46.0377 228.224 -44.437 228.992C-43.4758 229.453 -40.4527 230.835 -37.7191 232.065C-34.9855 233.294 -32.519 234.47 -32.2385 234.679C-31.9578 234.887 -30.9011 235.377 -29.8903 235.768C-28.8795 236.158 -26.5778 237.167 -24.7755 238.01C-22.9732 238.853 -20.4525 239.97 -19.1741 240.491C-17.8959 241.013 -16.5196 241.611 -16.1157 241.821C-14.2048 242.812 -5.41891 246.428 -4.45855 246.619C-4.09809 246.691 -3.69437 246.847 -3.5611 246.967C-3.33434 247.171 -2.05219 247.717 0.238373 248.587C0.77906 248.792 1.41806 249.052 1.65837 249.165C3.02834 249.808 9.63942 252.327 11.0522 252.745C11.653 252.922 12.8327 253.348 13.6738 253.692C16.1421 254.699 20.1072 256.127 22.5214 256.877C23.4226 257.158 24.2978 257.514 24.4664 257.668C24.6351 257.823 24.9791 257.958 25.231 257.968C25.4829 257.978 26.3773 258.227 27.2184 258.52C33.4351 260.686 34.5292 261.043 34.9314 261.043C35.1808 261.043 35.4386 261.142 35.5044 261.263C35.5699 261.383 35.8954 261.539 36.2273 261.61C36.9869 261.772 40.9246 262.966 43.9307 263.945C47.9372 265.251 59.0425 268.506 60.7522 268.875C61.0526 268.94 63.0187 269.481 65.1214 270.078C67.2241 270.674 69.8784 271.388 71.0199 271.665C72.1613 271.942 74.0292 272.395 75.1706 272.673C76.3121 272.95 78.4749 273.507 79.9768 273.911C82.7718 274.662 83.8169 274.925 88.3876 276.021C93.0251 277.134 94.0348 277.37 95.8152 277.761C96.7765 277.972 99.185 278.531 101.168 279.004C103.15 279.476 106.493 280.247 108.595 280.717C110.698 281.187 113.352 281.803 114.494 282.085C115.635 282.367 118.473 282.969 120.799 283.423C123.126 283.877 125.092 284.346 125.168 284.465C125.245 284.584 125.75 284.694 126.291 284.708C126.831 284.722 128.994 285.08 131.097 285.503C137.858 286.864 139.913 287.262 141.474 287.515C142.315 287.651 143.986 287.934 145.188 288.144C158.703 290.501 167.127 291.715 180.469 293.231C185.366 293.787 186.427 293.912 200.24 295.563C205.406 296.18 210.027 296.742 210.508 296.811C210.988 296.881 214.527 297.157 218.372 297.425C222.217 297.693 226.936 298.03 228.858 298.174C241.333 299.108 247.012 299.409 252.452 299.425C260.265 299.449 268.182 299.798 271.349 300.258C272.851 300.476 276.488 300.991 279.432 301.401C285.555 302.255 288.015 302.771 292.511 304.143C299.72 306.342 306.562 308.994 313.512 312.285C319.124 314.941 323.6 316.431 328.713 317.343C335.012 318.467 339.187 318.711 354.631 318.861C369.086 319.001 372.075 318.899 376.866 318.101C378.007 317.91 379.389 317.698 379.936 317.628C381.116 317.477 384.814 316.75 389.646 315.72C393.153 314.972 395.693 314.333 400.569 312.973C402.011 312.571 404.223 311.972 405.484 311.643C406.746 311.313 408.417 310.827 409.198 310.563C409.979 310.299 411.552 309.801 412.694 309.456C415.199 308.699 419.194 307 421.963 305.513C427.007 302.806 429.869 299.499 430.308 295.869C430.705 292.58 428.693 291.456 422.317 291.407C418.86 291.38 415.305 291.812 409.417 292.974C408.756 293.105 407.379 293.321 406.358 293.454C405.337 293.588 403.42 293.874 402.098 294.09C400.776 294.306 397.336 294.867 394.452 295.338C391.568 295.808 388.324 296.356 387.243 296.554C386.161 296.753 383.007 297.219 380.232 297.59C375.822 298.18 375.098 298.223 374.472 297.929C372.951 297.215 372.432 294.847 373.534 293.655C374.329 292.796 375.031 292.519 377.463 292.105C378.581 291.915 380.059 291.641 380.748 291.497C381.436 291.352 384.851 290.733 388.335 290.121C391.82 289.509 395.162 288.898 395.763 288.764C396.364 288.629 397.289 288.46 397.819 288.387C398.349 288.315 399.209 288.147 399.73 288.015C400.251 287.882 401.292 287.671 402.043 287.544C407.919 286.555 421.326 283.595 431.809 280.971C432.53 280.791 436.069 279.915 439.674 279.024C447.273 277.147 448.071 276.895 450.254 275.683C452.243 274.578 454.484 272.164 455.343 270.202C456.425 267.729 456.729 265.859 456.456 263.361C456.229 261.286 456.176 261.136 455.407 260.382C453.61 258.623 450.335 258.161 445.933 259.046C444.45 259.344 443.022 259.681 442.76 259.794C442.498 259.907 441.303 260.186 440.105 260.415C438.907 260.644 437.483 260.941 436.943 261.076C436.402 261.212 433.6 261.811 430.717 262.408C427.833 263.005 424.441 263.717 423.18 263.992C420.263 264.626 416.286 265.458 410.072 266.734C407.369 267.289 404.419 267.902 403.518 268.095C401.601 268.508 398.402 269.092 395.326 269.592C394.124 269.788 391.814 270.171 390.192 270.445C385.396 271.254 384.712 271.139 384.266 269.452C383.742 267.47 384.777 266.652 389.1 265.632C390.602 265.277 393.453 264.604 395.435 264.136C397.418 263.668 399.974 263.052 401.115 262.767C402.257 262.482 403.829 262.092 404.61 261.901C405.391 261.71 407.014 261.278 408.215 260.942C409.417 260.605 411.629 259.996 413.13 259.588C414.632 259.179 418.81 257.995 422.415 256.956C426.02 255.917 429.362 254.976 429.843 254.866C430.323 254.756 432.855 254.04 435.468 253.275C438.082 252.511 442.309 251.278 444.862 250.536C454.551 247.719 456.347 246.809 459.584 243.077C461.765 240.563 462.395 239.038 462.389 236.291C462.385 234.616 462.287 233.981 461.91 233.174C460.823 230.848 459.074 229.914 455.372 229.68C452.56 229.502 451.1 229.791 441.203 232.49C431.24 235.206 429.427 235.698 426.675 236.434C425.413 236.772 424.037 237.15 423.617 237.274C423.196 237.398 421.476 237.844 419.794 238.265C418.111 238.686 416.538 239.084 416.298 239.149C414.417 239.658 397.179 243.764 395.107 244.196C393.666 244.497 391.798 244.911 390.957 245.117C390.116 245.322 388.543 245.545 387.461 245.612C385.731 245.718 385.408 245.671 384.772 245.215C383.577 244.358 383.035 241.973 383.675 240.382C384.289 238.856 387.598 237.518 393.797 236.29C397.64 235.529 400.773 234.834 402.759 234.303C405.7 233.517 413.085 231.642 422.087 229.396C436.607 225.774 439.317 224.988 440.747 223.988C441.963 223.136 443.454 221.481 443.851 220.539C444.454 219.109 444.802 217.126 444.805 215.103C444.807 213.43 444.726 212.96 444.316 212.271C443.576 211.027 442.197 210.355 439.717 210.029C437.235 209.703 435.636 209.878 429.297 211.17C427.074 211.623 423.535 212.341 421.432 212.764C419.329 213.188 416.577 213.755 415.315 214.024C410.258 215.102 404.329 216.306 401.224 216.886C399.422 217.222 396.129 217.837 393.906 218.252C391.683 218.667 387.996 219.324 385.714 219.712C383.431 220.099 379.597 220.749 377.194 221.156C372.584 221.937 360.501 223.68 356.44 224.15C355.118 224.303 352.218 224.65 349.995 224.922C347.772 225.194 345.069 225.522 343.987 225.651C330.4 227.274 330.115 227.301 330.115 226.922C330.115 226.807 330.385 226.257 330.716 225.7C331.985 223.561 337.696 219.329 341.745 217.528C346.456 215.433 347.305 215.2 358.734 212.872C367.392 211.109 371.935 209.223 374.945 206.141C376.221 204.835 377.668 202.611 378.395 200.838C379.198 198.881 379.607 195.553 379.261 193.796C378.796 191.439 377.235 189.291 375.616 188.781C374.563 188.45 371.923 188.455 367.909 188.795C366.158 188.943 359.944 189.048 354.01 189.029C344.099 188.999 343.129 189.033 341.317 189.481C337.957 190.312 335.77 191.658 324.217 200.011C313.017 208.108 308.963 210.779 301.945 214.685C294.16 219.018 286.572 222.249 280.852 223.666C279.17 224.083 274.5 225.229 270.475 226.212L263.157 227.999L252.78 227.937C247.072 227.902 239.208 227.747 235.303 227.592C231.398 227.437 225.121 227.267 221.353 227.215L214.503 227.119L210.539 228.645C206.746 230.105 202.728 231.894 198.492 234.009C195.443 235.532 187.883 238.477 184.652 239.401C179.99 240.734 174.882 241.168 161.244 241.387C147.668 241.605 140.222 241.173 130.887 239.627C129.631 239.419 127.96 239.079 127.174 238.871C126.388 238.664 124.811 238.278 123.669 238.014C116.533 236.364 112.249 235.045 102.915 231.622C99.3687 230.322 98.0239 229.8 94.075 228.193C91.6077 227.189 86.8103 224.19 85.1087 222.587C83.996 221.539 83.0455 219.99 82.8201 218.857C82.7235 218.372 82.7078 217.974 82.7851 217.973C82.8627 217.973 83.1154 217.444 83.3468 216.798C84.0529 214.827 84.7021 213.865 85.8822 213.042C87.366 212.008 88.951 211.694 91.7737 211.875C93.8865 212.01 98.4309 212.637 99.2014 212.899C99.3816 212.961 100.365 213.122 101.386 213.257C103.094 213.483 105.814 213.945 110.889 214.871C115.104 215.64 125.918 217.549 129.24 218.112C134.524 219.006 136.476 218.878 137.456 217.575C138.296 216.458 138.051 214.44 136.947 213.387C136.174 212.651 135.485 212.436 131.025 211.548C124.745 210.297 118.201 208.849 113.729 207.72C111.326 207.113 106.46 205.883 102.915 204.985C99.3707 204.088 95.8316 203.197 95.0506 203.006C92.8531 202.467 90.5304 201.883 78.8845 198.938C64.2727 195.243 62.3441 194.52 59.9937 191.851C58.2925 189.92 57.8687 187.305 58.7312 184.064C59.5078 181.145 61.0248 179.286 63.4738 178.252C64.8304 177.68 68.4226 177.668 70.7435 178.228C71.6128 178.438 72.645 178.672 73.0374 178.749C74.5648 179.047 78.254 179.906 81.0691 180.619C82.6912 181.03 86.7218 181.977 90.026 182.723C93.3302 183.469 98.1965 184.57 100.84 185.17C112.291 187.769 118.247 189.031 123.712 190.015C125.966 190.42 127.562 190.237 128.079 189.514C128.697 188.65 128.587 187.442 127.797 186.424C127.009 185.407 125.675 184.89 120.064 183.428C114.348 181.938 110.676 180.884 106.629 179.568C104.526 178.884 102.437 178.223 101.987 178.099C101.536 177.975 98.6852 177.084 95.6514 176.119C92.6174 175.155 87.2843 173.479 83.7999 172.395C80.3154 171.311 75.5475 169.811 73.2045 169.061C70.8615 168.31 67.7157 167.307 66.2137 166.831C60.7175 165.09 58.1968 163.829 56.407 161.925C54.8539 160.273 54.6353 159.616 54.6353 156.6C54.6353 153.247 54.9328 152.113 56.1942 150.661C57.7582 148.861 59.9922 147.923 62.7039 147.927C64.4486 147.929 68.5954 148.709 71.4568 149.572C72.1176 149.771 73.5785 150.212 74.7031 150.551C75.8278 150.891 77.8431 151.537 79.1816 151.989C80.5201 152.44 82.3526 153.005 83.2537 153.244C84.1549 153.484 86.2193 154.098 87.8414 154.609C90.909 155.575 96.8914 157.441 102.151 159.071C103.833 159.592 107.274 160.631 109.797 161.379C113.806 162.567 116.009 163.184 123.123 165.111C127.718 166.355 129.793 165.637 129.781 162.805C129.767 159.322 127.711 157.646 121.375 155.95C119.097 155.34 100.378 149.982 90.2445 147.039C78.0948 143.511 75.4348 142.429 74.0121 140.439C72.607 138.474 72.4383 137.903 72.4554 135.178C72.4735 132.291 72.9463 130.832 74.2623 129.603C75.6895 128.27 76.6844 128.064 81.1331 128.18C85.5471 128.295 86.383 128.446 93.8491 130.489C102.86 132.954 126.942 138.6 136.121 140.4C137.864 140.741 140.616 141.343 142.238 141.736C143.86 142.129 148.727 143.233 153.052 144.187C157.378 145.142 163.424 146.478 166.488 147.155C169.551 147.832 173.764 148.738 175.85 149.167L179.642 149.947L180.274 149.261C180.622 148.884 180.906 148.463 180.906 148.325C180.906 147.744 179.629 146.069 177.979 144.487C174.189 140.854 171.55 138.873 168.107 137.079C164.604 135.254 162.96 134.737 156.548 133.444C147.14 131.546 142.54 129.356 139.088 125.132C137.693 123.424 137.399 122.856 136.896 120.897C136.434 119.098 136.407 115.062 136.846 113.464C137.259 111.962 138.254 110.548 139.563 109.605C141.341 108.324 141.89 108.259 148.325 108.556C151.526 108.704 157.348 108.933 161.264 109.065C169.058 109.328 170.807 109.523 173.915 110.471C177.94 111.699 179.763 112.893 185.405 117.993C189.013 121.254 191.914 123.667 203.08 132.693C209.305 137.726 210.001 138.249 213.129 140.25C219.956 144.618 226.543 147.572 238.689 151.716C242.729 153.095 248.991 155.008 250.569 155.346C253.007 155.868 266.274 156.156 274.298 155.861C278.504 155.706 289.563 155.475 298.875 155.348C312.335 155.163 316.948 155.014 321.377 154.62C324.441 154.347 329.209 153.958 331.972 153.754C339.016 153.236 342.598 152.922 344.752 152.637C345.773 152.501 347.789 152.268 349.231 152.119C350.672 151.97 356.571 151.185 362.338 150.376C371.532 149.087 375.227 148.55 382.655 147.428C383.616 147.283 384.894 147.06 385.495 146.932C386.096 146.804 387.767 146.478 389.209 146.207C395.156 145.089 402.558 143.598 410.727 141.872C411.629 141.681 414.037 141.178 416.08 140.754C418.122 140.329 421.072 139.658 422.634 139.262C424.196 138.867 427.341 138.088 429.624 137.533C433.485 136.594 438.136 135.381 443.387 133.944C444.589 133.615 446.356 133.168 447.314 132.949C448.271 132.73 449.795 132.326 450.7 132.05C451.604 131.774 453.671 131.164 455.294 130.695C456.916 130.226 458.685 129.689 459.226 129.503C459.767 129.316 460.995 128.926 461.957 128.636C463.357 128.213 472.511 125.308 476.047 124.165C476.468 124.029 478.041 123.521 479.543 123.037C481.045 122.553 483.994 121.541 486.097 120.788C488.199 120.036 491.001 119.034 492.323 118.561C493.644 118.088 497.749 116.576 501.444 115.2L508.161 112.699L525.114 53.3567L508.161 -99.875L228.531 -79.6072H-51.1001L-70.1499 11.9474L-51.1001 107.916ZM84.5892 211.724C84.1505 212.633 82.5983 214.832 82.5983 214.546C82.5983 213.945 83.2151 212.595 83.7835 211.951C84.4555 211.19 84.909 211.062 84.5892 211.724ZM93.7399 286.299C93.7399 286.43 93.8873 286.538 94.0676 286.538C94.2478 286.538 94.3952 286.495 94.3952 286.441C94.3952 286.388 94.2478 286.28 94.0676 286.201C93.8873 286.123 93.7399 286.167 93.7399 286.299Z"/>
</mask>
<path fill-rule="evenodd" clip-rule="evenodd" d="M-51.1001 107.916V226.075L-50.0624 226.511C-47.1817 227.72 -46.0377 228.224 -44.437 228.992C-43.4758 229.453 -40.4527 230.835 -37.7191 232.065C-34.9855 233.294 -32.519 234.47 -32.2385 234.679C-31.9578 234.887 -30.9011 235.377 -29.8903 235.768C-28.8795 236.158 -26.5778 237.167 -24.7755 238.01C-22.9732 238.853 -20.4525 239.97 -19.1741 240.491C-17.8959 241.013 -16.5196 241.611 -16.1157 241.821C-14.2048 242.812 -5.41891 246.428 -4.45855 246.619C-4.09809 246.691 -3.69437 246.847 -3.5611 246.967C-3.33434 247.171 -2.05219 247.717 0.238373 248.587C0.77906 248.792 1.41806 249.052 1.65837 249.165C3.02834 249.808 9.63942 252.327 11.0522 252.745C11.653 252.922 12.8327 253.348 13.6738 253.692C16.1421 254.699 20.1072 256.127 22.5214 256.877C23.4226 257.158 24.2978 257.514 24.4664 257.668C24.6351 257.823 24.9791 257.958 25.231 257.968C25.4829 257.978 26.3773 258.227 27.2184 258.52C33.4351 260.686 34.5292 261.043 34.9314 261.043C35.1808 261.043 35.4386 261.142 35.5044 261.263C35.5699 261.383 35.8954 261.539 36.2273 261.61C36.9869 261.772 40.9246 262.966 43.9307 263.945C47.9372 265.251 59.0425 268.506 60.7522 268.875C61.0526 268.94 63.0187 269.481 65.1214 270.078C67.2241 270.674 69.8784 271.388 71.0199 271.665C72.1613 271.942 74.0292 272.395 75.1706 272.673C76.3121 272.95 78.4749 273.507 79.9768 273.911C82.7718 274.662 83.8169 274.925 88.3876 276.021C93.0251 277.134 94.0348 277.37 95.8152 277.761C96.7765 277.972 99.185 278.531 101.168 279.004C103.15 279.476 106.493 280.247 108.595 280.717C110.698 281.187 113.352 281.803 114.494 282.085C115.635 282.367 118.473 282.969 120.799 283.423C123.126 283.877 125.092 284.346 125.168 284.465C125.245 284.584 125.75 284.694 126.291 284.708C126.831 284.722 128.994 285.08 131.097 285.503C137.858 286.864 139.913 287.262 141.474 287.515C142.315 287.651 143.986 287.934 145.188 288.144C158.703 290.501 167.127 291.715 180.469 293.231C185.366 293.787 186.427 293.912 200.24 295.563C205.406 296.18 210.027 296.742 210.508 296.811C210.988 296.881 214.527 297.157 218.372 297.425C222.217 297.693 226.936 298.03 228.858 298.174C241.333 299.108 247.012 299.409 252.452 299.425C260.265 299.449 268.182 299.798 271.349 300.258C272.851 300.476 276.488 300.991 279.432 301.401C285.555 302.255 288.015 302.771 292.511 304.143C299.72 306.342 306.562 308.994 313.512 312.285C319.124 314.941 323.6 316.431 328.713 317.343C335.012 318.467 339.187 318.711 354.631 318.861C369.086 319.001 372.075 318.899 376.866 318.101C378.007 317.91 379.389 317.698 379.936 317.628C381.116 317.477 384.814 316.75 389.646 315.72C393.153 314.972 395.693 314.333 400.569 312.973C402.011 312.571 404.223 311.972 405.484 311.643C406.746 311.313 408.417 310.827 409.198 310.563C409.979 310.299 411.552 309.801 412.694 309.456C415.199 308.699 419.194 307 421.963 305.513C427.007 302.806 429.869 299.499 430.308 295.869C430.705 292.58 428.693 291.456 422.317 291.407C418.86 291.38 415.305 291.812 409.417 292.974C408.756 293.105 407.379 293.321 406.358 293.454C405.337 293.588 403.42 293.874 402.098 294.09C400.776 294.306 397.336 294.867 394.452 295.338C391.568 295.808 388.324 296.356 387.243 296.554C386.161 296.753 383.007 297.219 380.232 297.59C375.822 298.18 375.098 298.223 374.472 297.929C372.951 297.215 372.432 294.847 373.534 293.655C374.329 292.796 375.031 292.519 377.463 292.105C378.581 291.915 380.059 291.641 380.748 291.497C381.436 291.352 384.851 290.733 388.335 290.121C391.82 289.509 395.162 288.898 395.763 288.764C396.364 288.629 397.289 288.46 397.819 288.387C398.349 288.315 399.209 288.147 399.73 288.015C400.251 287.882 401.292 287.671 402.043 287.544C407.919 286.555 421.326 283.595 431.809 280.971C432.53 280.791 436.069 279.915 439.674 279.024C447.273 277.147 448.071 276.895 450.254 275.683C452.243 274.578 454.484 272.164 455.343 270.202C456.425 267.729 456.729 265.859 456.456 263.361C456.229 261.286 456.176 261.136 455.407 260.382C453.61 258.623 450.335 258.161 445.933 259.046C444.45 259.344 443.022 259.681 442.76 259.794C442.498 259.907 441.303 260.186 440.105 260.415C438.907 260.644 437.483 260.941 436.943 261.076C436.402 261.212 433.6 261.811 430.717 262.408C427.833 263.005 424.441 263.717 423.18 263.992C420.263 264.626 416.286 265.458 410.072 266.734C407.369 267.289 404.419 267.902 403.518 268.095C401.601 268.508 398.402 269.092 395.326 269.592C394.124 269.788 391.814 270.171 390.192 270.445C385.396 271.254 384.712 271.139 384.266 269.452C383.742 267.47 384.777 266.652 389.1 265.632C390.602 265.277 393.453 264.604 395.435 264.136C397.418 263.668 399.974 263.052 401.115 262.767C402.257 262.482 403.829 262.092 404.61 261.901C405.391 261.71 407.014 261.278 408.215 260.942C409.417 260.605 411.629 259.996 413.13 259.588C414.632 259.179 418.81 257.995 422.415 256.956C426.02 255.917 429.362 254.976 429.843 254.866C430.323 254.756 432.855 254.04 435.468 253.275C438.082 252.511 442.309 251.278 444.862 250.536C454.551 247.719 456.347 246.809 459.584 243.077C461.765 240.563 462.395 239.038 462.389 236.291C462.385 234.616 462.287 233.981 461.91 233.174C460.823 230.848 459.074 229.914 455.372 229.68C452.56 229.502 451.1 229.791 441.203 232.49C431.24 235.206 429.427 235.698 426.675 236.434C425.413 236.772 424.037 237.15 423.617 237.274C423.196 237.398 421.476 237.844 419.794 238.265C418.111 238.686 416.538 239.084 416.298 239.149C414.417 239.658 397.179 243.764 395.107 244.196C393.666 244.497 391.798 244.911 390.957 245.117C390.116 245.322 388.543 245.545 387.461 245.612C385.731 245.718 385.408 245.671 384.772 245.215C383.577 244.358 383.035 241.973 383.675 240.382C384.289 238.856 387.598 237.518 393.797 236.29C397.64 235.529 400.773 234.834 402.759 234.303C405.7 233.517 413.085 231.642 422.087 229.396C436.607 225.774 439.317 224.988 440.747 223.988C441.963 223.136 443.454 221.481 443.851 220.539C444.454 219.109 444.802 217.126 444.805 215.103C444.807 213.43 444.726 212.96 444.316 212.271C443.576 211.027 442.197 210.355 439.717 210.029C437.235 209.703 435.636 209.878 429.297 211.17C427.074 211.623 423.535 212.341 421.432 212.764C419.329 213.188 416.577 213.755 415.315 214.024C410.258 215.102 404.329 216.306 401.224 216.886C399.422 217.222 396.129 217.837 393.906 218.252C391.683 218.667 387.996 219.324 385.714 219.712C383.431 220.099 379.597 220.749 377.194 221.156C372.584 221.937 360.501 223.68 356.44 224.15C355.118 224.303 352.218 224.65 349.995 224.922C347.772 225.194 345.069 225.522 343.987 225.651C330.4 227.274 330.115 227.301 330.115 226.922C330.115 226.807 330.385 226.257 330.716 225.7C331.985 223.561 337.696 219.329 341.745 217.528C346.456 215.433 347.305 215.2 358.734 212.872C367.392 211.109 371.935 209.223 374.945 206.141C376.221 204.835 377.668 202.611 378.395 200.838C379.198 198.881 379.607 195.553 379.261 193.796C378.796 191.439 377.235 189.291 375.616 188.781C374.563 188.45 371.923 188.455 367.909 188.795C366.158 188.943 359.944 189.048 354.01 189.029C344.099 188.999 343.129 189.033 341.317 189.481C337.957 190.312 335.77 191.658 324.217 200.011C313.017 208.108 308.963 210.779 301.945 214.685C294.16 219.018 286.572 222.249 280.852 223.666C279.17 224.083 274.5 225.229 270.475 226.212L263.157 227.999L252.78 227.937C247.072 227.902 239.208 227.747 235.303 227.592C231.398 227.437 225.121 227.267 221.353 227.215L214.503 227.119L210.539 228.645C206.746 230.105 202.728 231.894 198.492 234.009C195.443 235.532 187.883 238.477 184.652 239.401C179.99 240.734 174.882 241.168 161.244 241.387C147.668 241.605 140.222 241.173 130.887 239.627C129.631 239.419 127.96 239.079 127.174 238.871C126.388 238.664 124.811 238.278 123.669 238.014C116.533 236.364 112.249 235.045 102.915 231.622C99.3687 230.322 98.0239 229.8 94.075 228.193C91.6077 227.189 86.8103 224.19 85.1087 222.587C83.996 221.539 83.0455 219.99 82.8201 218.857C82.7235 218.372 82.7078 217.974 82.7851 217.973C82.8627 217.973 83.1154 217.444 83.3468 216.798C84.0529 214.827 84.7021 213.865 85.8822 213.042C87.366 212.008 88.951 211.694 91.7737 211.875C93.8865 212.01 98.4309 212.637 99.2014 212.899C99.3816 212.961 100.365 213.122 101.386 213.257C103.094 213.483 105.814 213.945 110.889 214.871C115.104 215.64 125.918 217.549 129.24 218.112C134.524 219.006 136.476 218.878 137.456 217.575C138.296 216.458 138.051 214.44 136.947 213.387C136.174 212.651 135.485 212.436 131.025 211.548C124.745 210.297 118.201 208.849 113.729 207.72C111.326 207.113 106.46 205.883 102.915 204.985C99.3707 204.088 95.8316 203.197 95.0506 203.006C92.8531 202.467 90.5304 201.883 78.8845 198.938C64.2727 195.243 62.3441 194.52 59.9937 191.851C58.2925 189.92 57.8687 187.305 58.7312 184.064C59.5078 181.145 61.0248 179.286 63.4738 178.252C64.8304 177.68 68.4226 177.668 70.7435 178.228C71.6128 178.438 72.645 178.672 73.0374 178.749C74.5648 179.047 78.254 179.906 81.0691 180.619C82.6912 181.03 86.7218 181.977 90.026 182.723C93.3302 183.469 98.1965 184.57 100.84 185.17C112.291 187.769 118.247 189.031 123.712 190.015C125.966 190.42 127.562 190.237 128.079 189.514C128.697 188.65 128.587 187.442 127.797 186.424C127.009 185.407 125.675 184.89 120.064 183.428C114.348 181.938 110.676 180.884 106.629 179.568C104.526 178.884 102.437 178.223 101.987 178.099C101.536 177.975 98.6852 177.084 95.6514 176.119C92.6174 175.155 87.2843 173.479 83.7999 172.395C80.3154 171.311 75.5475 169.811 73.2045 169.061C70.8615 168.31 67.7157 167.307 66.2137 166.831C60.7175 165.09 58.1968 163.829 56.407 161.925C54.8539 160.273 54.6353 159.616 54.6353 156.6C54.6353 153.247 54.9328 152.113 56.1942 150.661C57.7582 148.861 59.9922 147.923 62.7039 147.927C64.4486 147.929 68.5954 148.709 71.4568 149.572C72.1176 149.771 73.5785 150.212 74.7031 150.551C75.8278 150.891 77.8431 151.537 79.1816 151.989C80.5201 152.44 82.3526 153.005 83.2537 153.244C84.1549 153.484 86.2193 154.098 87.8414 154.609C90.909 155.575 96.8914 157.441 102.151 159.071C103.833 159.592 107.274 160.631 109.797 161.379C113.806 162.567 116.009 163.184 123.123 165.111C127.718 166.355 129.793 165.637 129.781 162.805C129.767 159.322 127.711 157.646 121.375 155.95C119.097 155.34 100.378 149.982 90.2445 147.039C78.0948 143.511 75.4348 142.429 74.0121 140.439C72.607 138.474 72.4383 137.903 72.4554 135.178C72.4735 132.291 72.9463 130.832 74.2623 129.603C75.6895 128.27 76.6844 128.064 81.1331 128.18C85.5471 128.295 86.383 128.446 93.8491 130.489C102.86 132.954 126.942 138.6 136.121 140.4C137.864 140.741 140.616 141.343 142.238 141.736C143.86 142.129 148.727 143.233 153.052 144.187C157.378 145.142 163.424 146.478 166.488 147.155C169.551 147.832 173.764 148.738 175.85 149.167L179.642 149.947L180.274 149.261C180.622 148.884 180.906 148.463 180.906 148.325C180.906 147.744 179.629 146.069 177.979 144.487C174.189 140.854 171.55 138.873 168.107 137.079C164.604 135.254 162.96 134.737 156.548 133.444C147.14 131.546 142.54 129.356 139.088 125.132C137.693 123.424 137.399 122.856 136.896 120.897C136.434 119.098 136.407 115.062 136.846 113.464C137.259 111.962 138.254 110.548 139.563 109.605C141.341 108.324 141.89 108.259 148.325 108.556C151.526 108.704 157.348 108.933 161.264 109.065C169.058 109.328 170.807 109.523 173.915 110.471C177.94 111.699 179.763 112.893 185.405 117.993C189.013 121.254 191.914 123.667 203.08 132.693C209.305 137.726 210.001 138.249 213.129 140.25C219.956 144.618 226.543 147.572 238.689 151.716C242.729 153.095 248.991 155.008 250.569 155.346C253.007 155.868 266.274 156.156 274.298 155.861C278.504 155.706 289.563 155.475 298.875 155.348C312.335 155.163 316.948 155.014 321.377 154.62C324.441 154.347 329.209 153.958 331.972 153.754C339.016 153.236 342.598 152.922 344.752 152.637C345.773 152.501 347.789 152.268 349.231 152.119C350.672 151.97 356.571 151.185 362.338 150.376C371.532 149.087 375.227 148.55 382.655 147.428C383.616 147.283 384.894 147.06 385.495 146.932C386.096 146.804 387.767 146.478 389.209 146.207C395.156 145.089 402.558 143.598 410.727 141.872C411.629 141.681 414.037 141.178 416.08 140.754C418.122 140.329 421.072 139.658 422.634 139.262C424.196 138.867 427.341 138.088 429.624 137.533C433.485 136.594 438.136 135.381 443.387 133.944C444.589 133.615 446.356 133.168 447.314 132.949C448.271 132.73 449.795 132.326 450.7 132.05C451.604 131.774 453.671 131.164 455.294 130.695C456.916 130.226 458.685 129.689 459.226 129.503C459.767 129.316 460.995 128.926 461.957 128.636C463.357 128.213 472.511 125.308 476.047 124.165C476.468 124.029 478.041 123.521 479.543 123.037C481.045 122.553 483.994 121.541 486.097 120.788C488.199 120.036 491.001 119.034 492.323 118.561C493.644 118.088 497.749 116.576 501.444 115.2L508.161 112.699L525.114 53.3567L508.161 -99.875L228.531 -79.6072H-51.1001L-70.1499 11.9474L-51.1001 107.916ZM84.5892 211.724C84.1505 212.633 82.5983 214.832 82.5983 214.546C82.5983 213.945 83.2151 212.595 83.7835 211.951C84.4555 211.19 84.909 211.062 84.5892 211.724ZM93.7399 286.299C93.7399 286.43 93.8873 286.538 94.0676 286.538C94.2478 286.538 94.3952 286.495 94.3952 286.441C94.3952 286.388 94.2478 286.28 94.0676 286.201C93.8873 286.123 93.7399 286.167 93.7399 286.299Z" stroke="#FFE711" stroke-width="2" mask="url(#path-1-inside-1_250_11730)"/>
<g filter="url(#filter0_f_250_11730)">
<ellipse cx="436" cy="125" rx="64" ry="63" fill="#FFE711"/>
</g>
<g filter="url(#filter1_f_250_11730)">
<ellipse cx="-3" cy="256" rx="67" ry="63" fill="#1A7DF0"/>
</g>
<defs>
<filter id="filter0_f_250_11730" x="122" y="-188" width="628" height="626" filterUnits="userSpaceOnUse" color-interpolation-filters="sRGB">
<feFlood flood-opacity="0" result="BackgroundImageFix"/>
<feBlend mode="normal" in="SourceGraphic" in2="BackgroundImageFix" result="shape"/>
<feGaussianBlur stdDeviation="125" result="effect1_foregroundBlur_250_11730"/>
</filter>
<filter id="filter1_f_250_11730" x="-320" y="-57" width="634" height="626" filterUnits="userSpaceOnUse" color-interpolation-filters="sRGB">
<feFlood flood-opacity="0" result="BackgroundImageFix"/>
<feBlend mode="normal" in="SourceGraphic" in2="BackgroundImageFix" result="shape"/>
<feGaussianBlur stdDeviation="125" result="effect1_foregroundBlur_250_11730"/>
</filter>
</defs>
</svg>
