<svg width="60" height="60" viewBox="0 0 60 60" fill="none" xmlns="http://www.w3.org/2000/svg">
<path d="M30.3286 8.74286C26.1045 8.74286 21.9754 9.99543 18.4632 12.3422C14.951 14.6889 12.2136 18.0245 10.5972 21.927C8.98069 25.8295 8.55775 30.1237 9.38182 34.2666C10.2059 38.4094 12.24 42.2149 15.2268 45.2018C18.2137 48.1886 22.0191 50.2227 26.162 51.0468C30.3049 51.8708 34.5991 51.4479 38.5016 49.8314C42.4041 48.215 45.7396 45.4775 48.0864 41.9654C50.4331 38.4532 51.6857 34.324 51.6857 30.1C51.6857 24.4357 49.4356 19.0035 45.4304 14.9982C41.4251 10.993 35.9928 8.74286 30.3286 8.74286Z" stroke="white" stroke-width="0.985714" stroke-linecap="round" stroke-linejoin="round"/>
<path d="M26.0571 38.6429V21.5571L38.8714 30.1L26.0571 38.6429Z" fill="#FFE711" stroke="#FFE711" stroke-width="0.978723" stroke-linejoin="round"/>
</svg>
