<svg width="17" height="17" viewBox="0 0 17 17" fill="none" xmlns="http://www.w3.org/2000/svg">
<path d="M6.24284 7.8559L10.0223 5.9675M4.71277 6.90885C5.05152 6.90885 5.38266 7.00923 5.66433 7.19729C5.94599 7.38536 6.16552 7.65267 6.29516 7.96541C6.42479 8.27815 6.45871 8.62229 6.39262 8.95429C6.32653 9.2863 6.16341 9.59127 5.92387 9.83063C5.68434 10.07 5.37915 10.233 5.04691 10.299C4.71467 10.3651 4.37029 10.3312 4.05732 10.2016C3.74435 10.0721 3.47685 9.85273 3.28865 9.57127C3.10045 9.28981 3 8.9589 3 8.62039C3 8.16646 3.18045 7.73112 3.50166 7.41014C3.82286 7.08917 4.25851 6.90885 4.71277 6.90885V6.90885ZM9.85106 12.0435C9.85106 12.382 9.95151 12.7129 10.1397 12.9944C10.3279 13.2758 10.5954 13.4952 10.9084 13.6247C11.2213 13.7543 11.5657 13.7882 11.898 13.7221C12.2302 13.6561 12.5354 13.4931 12.7749 13.2537C13.0145 13.0144 13.1776 12.7094 13.2437 12.3774C13.3098 12.0454 13.2759 11.7012 13.1462 11.3885C13.0166 11.0757 12.7971 10.8084 12.5154 10.6204C12.2337 10.4323 11.9026 10.3319 11.5638 10.3319C11.1096 10.3319 10.6739 10.5123 10.3527 10.8332C10.0315 11.1542 9.85106 11.5895 9.85106 12.0435ZM6.24284 9.38488L10.0223 11.2733L6.24284 9.38488ZM11.5638 6.90885C11.9026 6.90885 12.2337 6.80847 12.5154 6.6204C12.7971 6.43233 13.0166 6.16503 13.1462 5.85228C13.2759 5.53954 13.3098 5.1954 13.2437 4.8634C13.1776 4.53139 13.0145 4.22642 12.7749 3.98706C12.5354 3.7477 12.2302 3.58469 11.898 3.51865C11.5657 3.45261 11.2213 3.4865 10.9084 3.61604C10.5954 3.74559 10.3279 3.96496 10.1397 4.24642C9.95151 4.52788 9.85106 4.85879 9.85106 5.1973C9.85106 5.65123 10.0315 6.08657 10.3527 6.40755C10.6739 6.72852 11.1096 6.90885 11.5638 6.90885Z" stroke="white" stroke-width="0.985714" stroke-linecap="round" stroke-linejoin="round"/>
</svg>
