<svg width="451" height="17" viewBox="0 0 451 17" fill="none" xmlns="http://www.w3.org/2000/svg">
<path d="M5.51416 12.4602V3.79999L12.1205 8.13009L5.51416 12.4602Z" fill="white" stroke="white" stroke-width="0.978723" stroke-linejoin="round"/>
<rect x="21.2856" y="7.41428" width="331.857" height="1.97143" fill="white" fill-opacity="0.5"/>
<rect x="21.2856" y="7.41428" width="84.1143" height="1.97143" fill="#FFE711"/>
<path d="M358.842 11.4C358.835 11.0136 358.866 10.6732 358.934 10.3788C359.001 10.0844 359.102 9.82373 359.237 9.59679C359.378 9.36986 359.547 9.17359 359.743 9.00799C359.939 8.83626 360.16 8.68599 360.406 8.55719C360.639 8.42839 360.881 8.31186 361.132 8.20759C361.384 8.09719 361.617 7.97759 361.832 7.84879C362.046 7.71999 362.218 7.56359 362.347 7.37959C362.482 7.18946 362.549 6.95333 362.549 6.67119C362.549 6.43813 362.497 6.22346 362.393 6.02719C362.295 5.83093 362.141 5.67453 361.933 5.55799C361.724 5.43533 361.46 5.37399 361.142 5.37399C360.829 5.37399 360.55 5.42613 360.304 5.53039C360.065 5.63466 359.863 5.76039 359.697 5.90759C359.538 6.05479 359.409 6.18973 359.311 6.31239L358.897 5.90759C358.934 5.86466 359.007 5.78186 359.118 5.65919C359.234 5.53653 359.387 5.40773 359.578 5.27279C359.774 5.13786 360.004 5.02439 360.268 4.93239C360.537 4.83426 360.85 4.78519 361.206 4.78519C361.66 4.78519 362.037 4.87413 362.338 5.05199C362.638 5.22373 362.862 5.45066 363.009 5.73279C363.162 6.01493 363.239 6.32466 363.239 6.66199C363.239 6.98706 363.175 7.26306 363.046 7.48999C362.923 7.71079 362.761 7.89786 362.558 8.05119C362.362 8.19839 362.147 8.32719 361.914 8.43759C361.687 8.54799 361.473 8.65226 361.27 8.75039C360.878 8.92826 360.565 9.10306 360.332 9.27479C360.099 9.44653 359.924 9.61826 359.808 9.78999C359.697 9.96173 359.624 10.1335 359.587 10.3052C359.55 10.4769 359.528 10.6517 359.522 10.8296H363.248V11.4H358.842ZM364.344 7.53599V6.63439H364.877V7.53599H364.344ZM364.344 11.4V10.4984H364.877V11.4H364.344ZM369.123 10.8296V11.4H366.078V10.8296H367.32V5.48439C367.264 5.55799 367.182 5.64079 367.071 5.73279C366.967 5.81866 366.844 5.90453 366.703 5.99039C366.562 6.07013 366.418 6.13759 366.271 6.19279C366.124 6.24799 365.989 6.27559 365.866 6.27559V5.68679C366.032 5.68679 366.197 5.64386 366.363 5.55799C366.528 5.46599 366.682 5.36479 366.823 5.25439C366.97 5.13786 367.087 5.03359 367.172 4.94159C367.264 4.84346 367.313 4.79133 367.32 4.78519H367.954V10.8296H369.123ZM374.303 9.58759C374.303 9.96786 374.195 10.2991 373.981 10.5812C373.772 10.8633 373.493 11.0841 373.143 11.2436C372.8 11.3969 372.423 11.4736 372.012 11.4736C371.576 11.4736 371.19 11.3877 370.853 11.216C370.515 11.0381 370.248 10.8051 370.052 10.5168C369.862 10.2285 369.767 9.90653 369.767 9.55079C369.767 9.27479 369.831 9.02639 369.96 8.80559C370.095 8.57866 370.261 8.38853 370.457 8.23519C370.659 8.08186 370.865 7.97146 371.073 7.90399C370.883 7.82426 370.705 7.71999 370.54 7.59119C370.374 7.45626 370.242 7.29986 370.144 7.12199C370.046 6.94413 369.997 6.74786 369.997 6.53319C369.997 6.26333 370.055 6.02719 370.172 5.82479C370.294 5.61626 370.454 5.44146 370.65 5.30039C370.846 5.15319 371.064 5.04586 371.303 4.97839C371.549 4.90479 371.794 4.86799 372.039 4.86799C372.279 4.86799 372.518 4.90479 372.757 4.97839C373.002 5.04586 373.223 5.15013 373.419 5.29119C373.622 5.43226 373.781 5.60706 373.898 5.81559C374.02 6.01799 374.082 6.25413 374.082 6.52399C374.082 6.73866 374.03 6.93799 373.925 7.12199C373.827 7.29986 373.695 7.45626 373.53 7.59119C373.364 7.71999 373.183 7.82426 372.987 7.90399C373.226 7.98373 373.444 8.10639 373.64 8.27199C373.843 8.43146 374.002 8.62159 374.119 8.84239C374.241 9.06319 374.303 9.31159 374.303 9.58759ZM373.668 9.54159C373.668 9.32079 373.619 9.12759 373.521 8.96199C373.429 8.79026 373.3 8.64613 373.134 8.52959C372.975 8.41306 372.797 8.32413 372.601 8.26279C372.41 8.20146 372.217 8.17079 372.021 8.17079C371.757 8.17079 371.5 8.22906 371.248 8.34559C371.003 8.45599 370.8 8.61546 370.641 8.82399C370.488 9.02639 370.411 9.26866 370.411 9.55079C370.411 9.76546 370.457 9.95559 370.549 10.1212C370.647 10.2868 370.776 10.4309 370.935 10.5536C371.095 10.6701 371.27 10.7591 371.46 10.8204C371.656 10.8817 371.852 10.9124 372.049 10.9124C372.312 10.9124 372.567 10.8572 372.812 10.7468C373.064 10.6303 373.269 10.4677 373.429 10.2592C373.588 10.0507 373.668 9.81146 373.668 9.54159ZM370.623 6.56079C370.623 6.79386 370.693 6.99626 370.834 7.16799C370.981 7.33359 371.165 7.45933 371.386 7.54519C371.607 7.63106 371.822 7.67399 372.03 7.67399C372.251 7.67399 372.469 7.63106 372.683 7.54519C372.904 7.45319 373.085 7.32439 373.226 7.15879C373.373 6.98706 373.447 6.78159 373.447 6.54239C373.447 6.30933 373.379 6.10999 373.245 5.94439C373.11 5.77879 372.932 5.65306 372.711 5.56719C372.496 5.48133 372.266 5.43839 372.021 5.43839C371.788 5.43839 371.561 5.48439 371.34 5.57639C371.125 5.66226 370.951 5.79106 370.816 5.96279C370.687 6.12839 370.623 6.32773 370.623 6.56079ZM382.405 4.86799L378.062 11.4H377.354L381.696 4.86799H382.405ZM388.646 10.8296V11.4H385.601V10.8296H386.843V5.48439C386.787 5.55799 386.705 5.64079 386.594 5.73279C386.49 5.81866 386.367 5.90453 386.226 5.99039C386.085 6.07013 385.941 6.13759 385.794 6.19279C385.647 6.24799 385.512 6.27559 385.389 6.27559V5.68679C385.555 5.68679 385.72 5.64386 385.886 5.55799C386.051 5.46599 386.205 5.36479 386.346 5.25439C386.493 5.13786 386.61 5.03359 386.695 4.94159C386.787 4.84346 386.837 4.79133 386.843 4.78519H387.477V10.8296H388.646ZM391.949 11.492C391.508 11.4797 391.118 11.3724 390.781 11.17C390.444 10.9676 390.162 10.7039 389.935 10.3788C389.708 10.0476 389.536 9.69186 389.419 9.31159C389.303 8.92519 389.245 8.54799 389.245 8.17999C389.245 7.78746 389.306 7.39493 389.429 7.00239C389.557 6.60986 389.738 6.25413 389.971 5.93519C390.211 5.61013 390.496 5.35253 390.827 5.16239C391.158 4.96613 391.532 4.86799 391.949 4.86799C392.397 4.86799 392.787 4.97226 393.118 5.18079C393.455 5.38933 393.737 5.65919 393.964 5.99039C394.191 6.32159 394.36 6.68039 394.47 7.06679C394.587 7.45319 394.645 7.82426 394.645 8.17999C394.645 8.57866 394.581 8.97426 394.452 9.36679C394.329 9.75319 394.151 10.1059 393.918 10.4248C393.685 10.7437 393.4 11.0013 393.063 11.1976C392.731 11.3877 392.36 11.4859 391.949 11.492ZM389.898 8.17999C389.91 8.49893 389.959 8.82093 390.045 9.14599C390.137 9.46493 390.269 9.75933 390.441 10.0292C390.612 10.2929 390.821 10.5076 391.066 10.6732C391.318 10.8327 391.612 10.9124 391.949 10.9124C392.293 10.9124 392.593 10.8265 392.851 10.6548C393.109 10.4831 393.32 10.2592 393.486 9.98319C393.658 9.70106 393.786 9.40359 393.872 9.09079C393.958 8.77186 394.001 8.46826 394.001 8.17999C394.001 7.86106 393.955 7.54213 393.863 7.22319C393.771 6.89813 393.636 6.60373 393.458 6.33999C393.28 6.07013 393.066 5.85546 392.814 5.69599C392.563 5.53039 392.274 5.44759 391.949 5.44759C391.6 5.44759 391.296 5.53653 391.039 5.71439C390.781 5.88613 390.566 6.10999 390.395 6.38599C390.229 6.66199 390.103 6.95946 390.017 7.27839C389.938 7.59119 389.898 7.89173 389.898 8.17999ZM395.69 7.53599V6.63439H396.224V7.53599H395.69ZM395.69 11.4V10.4984H396.224V11.4H395.69ZM399.448 11.4828C399.062 11.4828 398.712 11.4184 398.399 11.2896C398.086 11.1608 397.832 10.9829 397.636 10.756C397.439 10.5291 397.317 10.2653 397.268 9.96479L397.654 9.61519C397.666 9.82373 397.749 10.0292 397.902 10.2316C398.056 10.4279 398.264 10.5873 398.528 10.71C398.798 10.8327 399.105 10.894 399.448 10.894C399.755 10.894 400.031 10.8419 400.276 10.7376C400.528 10.6272 400.724 10.48 400.865 10.296C401.012 10.1059 401.086 9.88506 401.086 9.63359C401.086 9.36373 401 9.13373 400.828 8.94359C400.656 8.74733 400.414 8.59706 400.101 8.49279C399.788 8.38853 399.417 8.33639 398.988 8.33639H398.675V7.79359H398.988C399.583 7.79359 400.052 7.69546 400.396 7.49919C400.739 7.30293 400.911 7.00853 400.911 6.61599C400.911 6.35839 400.84 6.13453 400.699 5.94439C400.564 5.75426 400.38 5.60706 400.147 5.50279C399.92 5.39853 399.672 5.34639 399.402 5.34639C398.997 5.34639 398.651 5.43533 398.362 5.61319C398.074 5.79106 397.872 6.01186 397.755 6.27559L397.323 5.85239C397.439 5.63159 397.602 5.44146 397.81 5.28199C398.025 5.12253 398.267 4.99986 398.537 4.91399C398.813 4.82813 399.098 4.78519 399.393 4.78519C399.81 4.78519 400.181 4.86493 400.506 5.02439C400.837 5.18386 401.095 5.39853 401.279 5.66839C401.469 5.93826 401.564 6.24799 401.564 6.59759C401.564 6.84293 401.515 7.06373 401.417 7.25999C401.319 7.45013 401.175 7.61266 400.984 7.74759C400.794 7.87639 400.561 7.97453 400.285 8.04199C400.574 8.09719 400.825 8.20453 401.04 8.36399C401.26 8.52346 401.429 8.71973 401.546 8.95279C401.668 9.17973 401.73 9.43119 401.73 9.70719C401.73 10.0752 401.622 10.3911 401.408 10.6548C401.199 10.9185 400.923 11.124 400.58 11.2712C400.236 11.4123 399.859 11.4828 399.448 11.4828ZM405.649 11.4V9.65199H402.438V9.09079L405.842 4.86799H406.274V9.08159H407.084V9.65199H406.274V11.4H405.649ZM403.11 9.08159H405.704V5.84319L403.11 9.08159Z" fill="white"/>
<path d="M420.886 3.79987V12.9999L418.257 10.3713H416.286C416.111 10.3713 415.944 10.3021 415.821 10.1788C415.698 10.0556 415.628 9.88844 415.628 9.71415V7.08558C415.628 6.9113 415.698 6.74415 415.821 6.62091C415.944 6.49767 416.111 6.42844 416.286 6.42844H418.257L420.886 3.79987Z" stroke="white" stroke-width="0.985714" stroke-linecap="round" stroke-linejoin="round"/>
<path d="M425.722 4.22067C426.83 5.3296 427.452 6.83281 427.452 8.4001C427.452 9.96739 426.83 11.4706 425.722 12.5795" stroke="white" stroke-width="0.985714" stroke-linecap="round" stroke-linejoin="round"/>
<path d="M423.869 6.07358C424.175 6.37879 424.418 6.74137 424.584 7.14056C424.749 7.53974 424.834 7.96768 424.834 8.39986C424.834 8.83205 424.749 9.25999 424.584 9.65917C424.418 10.0584 424.175 10.4209 423.869 10.7262" stroke="white" stroke-width="0.985714" stroke-linecap="round" stroke-linejoin="round"/>
<path d="M437.314 5.9494V3.70416C437.314 3.55529 437.374 3.41252 437.481 3.30726C437.588 3.20199 437.734 3.14285 437.885 3.14285H440.169" stroke="white" stroke-width="0.985714" stroke-linecap="round" stroke-linejoin="round"/>
<path d="M444.736 3.14285H447.02C447.171 3.14285 447.316 3.20199 447.423 3.30726C447.531 3.41252 447.591 3.55529 447.591 3.70416V5.9494" stroke="white" stroke-width="0.985714" stroke-linecap="round" stroke-linejoin="round"/>
<path d="M440.169 13.2466H437.885C437.734 13.2466 437.588 13.1875 437.481 13.0822C437.374 12.977 437.314 12.8342 437.314 12.6853V10.4401" stroke="white" stroke-width="0.985714" stroke-linecap="round" stroke-linejoin="round"/>
<path d="M447.591 10.4401V12.6853C447.591 12.8342 447.531 12.977 447.423 13.0822C447.316 13.1875 447.171 13.2466 447.02 13.2466H444.736" stroke="white" stroke-width="0.985714" stroke-linecap="round" stroke-linejoin="round"/>
<path d="M447.425 13.0839L444.165 9.87878M440.74 6.51092L437.48 3.30585L440.74 6.51092ZM444.165 6.51092L447.425 3.30585L444.165 6.51092ZM440.74 9.87878L437.48 13.0839L440.74 9.87878Z" stroke="white" stroke-width="0.985714" stroke-linecap="round" stroke-linejoin="round"/>
</svg>
